<svg width="109" height="104" viewBox="0 0 109 104" fill="none" xmlns="http://www.w3.org/2000/svg">
<g filter="url(#filter0_ddd_1_255)">
<rect x="20" y="10" width="68.75" height="64" rx="8" fill="white"/>
<path fill-rule="evenodd" clip-rule="evenodd" d="M47.5471 42C47.5471 41.2205 47.6766 40.4733 47.9076 39.7724L43.8634 36.684C43.0752 38.2844 42.6311 40.0876 42.6311 42C42.6311 43.9107 43.0746 45.7129 43.8617 47.3122L47.9038 44.2178C47.675 43.5202 47.5471 42.7756 47.5471 42Z" fill="#FBBC05"/>
<path fill-rule="evenodd" clip-rule="evenodd" d="M54.6481 34.9091C56.3414 34.9091 57.8709 35.5091 59.0726 36.4909L62.5685 33C60.4382 31.1455 57.707 30 54.6481 30C49.8992 30 45.8178 32.7158 43.8634 36.684L47.9077 39.7724C48.8395 36.9436 51.4958 34.9091 54.6481 34.9091Z" fill="#EB4335"/>
<path fill-rule="evenodd" clip-rule="evenodd" d="M54.6481 49.0909C51.4958 49.0909 48.8395 47.0564 47.9077 44.2276L43.8634 47.3154C45.8178 51.2842 49.8992 54 54.6481 54C57.5792 54 60.3775 52.9593 62.4778 51.0093L58.6389 48.0414C57.5557 48.7238 56.1918 49.0909 54.6481 49.0909Z" fill="#34A853"/>
<path fill-rule="evenodd" clip-rule="evenodd" d="M66.1189 42C66.1189 41.2909 66.0097 40.5273 65.8458 39.8182H54.6481V44.4545H61.0936C60.7714 46.0353 59.8941 47.2505 58.6389 48.0414L62.4778 51.0093C64.684 48.9616 66.1189 45.9114 66.1189 42Z" fill="#4285F4"/>
</g>
<defs>
<filter id="filter0_ddd_1_255" x="0" y="0" width="108.75" height="104" filterUnits="userSpaceOnUse" color-interpolation-filters="sRGB">
<feFlood flood-opacity="0" result="BackgroundImageFix"/>
<feColorMatrix in="SourceAlpha" type="matrix" values="0 0 0 0 0 0 0 0 0 0 0 0 0 0 0 0 0 0 127 0" result="hardAlpha"/>
<feOffset/>
<feGaussianBlur stdDeviation="0.5"/>
<feColorMatrix type="matrix" values="0 0 0 0 0 0 0 0 0 0 0 0 0 0 0 0 0 0 0.04 0"/>
<feBlend mode="normal" in2="BackgroundImageFix" result="effect1_dropShadow_1_255"/>
<feColorMatrix in="SourceAlpha" type="matrix" values="0 0 0 0 0 0 0 0 0 0 0 0 0 0 0 0 0 0 127 0" result="hardAlpha"/>
<feOffset dy="2"/>
<feGaussianBlur stdDeviation="3"/>
<feColorMatrix type="matrix" values="0 0 0 0 0 0 0 0 0 0 0 0 0 0 0 0 0 0 0.04 0"/>
<feBlend mode="normal" in2="effect1_dropShadow_1_255" result="effect2_dropShadow_1_255"/>
<feColorMatrix in="SourceAlpha" type="matrix" values="0 0 0 0 0 0 0 0 0 0 0 0 0 0 0 0 0 0 127 0" result="hardAlpha"/>
<feOffset dy="10"/>
<feGaussianBlur stdDeviation="10"/>
<feColorMatrix type="matrix" values="0 0 0 0 0 0 0 0 0 0 0 0 0 0 0 0 0 0 0.04 0"/>
<feBlend mode="normal" in2="effect2_dropShadow_1_255" result="effect3_dropShadow_1_255"/>
<feBlend mode="normal" in="SourceGraphic" in2="effect3_dropShadow_1_255" result="shape"/>
</filter>
</defs>
</svg>
