<svg width="109" height="104" viewBox="0 0 109 104" fill="none" xmlns="http://www.w3.org/2000/svg">
<g filter="url(#filter0_ddd_1_270)">
<rect x="20.25" y="10" width="68.75" height="64" rx="8" fill="white"/>
<g clip-path="url(#clip0_1_270)">
<path fill-rule="evenodd" clip-rule="evenodd" d="M69.025 32.8412C67.9668 33.3231 66.8274 33.649 65.6323 33.7946C66.8528 33.0457 67.7893 31.8583 68.2305 30.4438C67.0878 31.1372 65.825 31.6416 64.476 31.912C63.4009 30.735 61.8643 30 60.1637 30C56.9029 30 54.2573 32.7129 54.2573 36.0585C54.2573 36.5335 54.308 36.9946 54.4095 37.4384C49.4987 37.1853 45.1459 34.7757 42.2299 31.106C41.721 32.0039 41.4303 33.0457 41.4303 34.1551C41.4303 36.2561 42.4733 38.1109 44.0589 39.1978C43.092 39.1684 42.1791 38.8927 41.3813 38.442V38.5166C41.3813 41.4531 43.4182 43.9025 46.1229 44.4572C45.6276 44.5993 45.1053 44.6704 44.566 44.6704C44.1857 44.6704 43.8138 44.634 43.4537 44.5629C44.206 46.969 46.3866 48.7216 48.973 48.7684C46.9512 50.3944 44.4021 51.3634 41.6348 51.3634C41.1581 51.3634 40.6865 51.3356 40.225 51.2802C42.8401 52.9963 45.9471 54 49.2824 54C60.1519 54 66.0938 44.7692 66.0938 36.7623C66.0938 36.4988 66.0887 36.2353 66.0786 35.977C67.2331 35.1224 68.2356 34.0563 69.025 32.8412Z" fill="#00AAEC"/>
</g>
</g>
<defs>
<filter id="filter0_ddd_1_270" x="0.25" y="0" width="108.75" height="104" filterUnits="userSpaceOnUse" color-interpolation-filters="sRGB">
<feFlood flood-opacity="0" result="BackgroundImageFix"/>
<feColorMatrix in="SourceAlpha" type="matrix" values="0 0 0 0 0 0 0 0 0 0 0 0 0 0 0 0 0 0 127 0" result="hardAlpha"/>
<feOffset/>
<feGaussianBlur stdDeviation="0.5"/>
<feColorMatrix type="matrix" values="0 0 0 0 0 0 0 0 0 0 0 0 0 0 0 0 0 0 0.04 0"/>
<feBlend mode="normal" in2="BackgroundImageFix" result="effect1_dropShadow_1_270"/>
<feColorMatrix in="SourceAlpha" type="matrix" values="0 0 0 0 0 0 0 0 0 0 0 0 0 0 0 0 0 0 127 0" result="hardAlpha"/>
<feOffset dy="2"/>
<feGaussianBlur stdDeviation="3"/>
<feColorMatrix type="matrix" values="0 0 0 0 0 0 0 0 0 0 0 0 0 0 0 0 0 0 0.04 0"/>
<feBlend mode="normal" in2="effect1_dropShadow_1_270" result="effect2_dropShadow_1_270"/>
<feColorMatrix in="SourceAlpha" type="matrix" values="0 0 0 0 0 0 0 0 0 0 0 0 0 0 0 0 0 0 127 0" result="hardAlpha"/>
<feOffset dy="10"/>
<feGaussianBlur stdDeviation="10"/>
<feColorMatrix type="matrix" values="0 0 0 0 0 0 0 0 0 0 0 0 0 0 0 0 0 0 0.04 0"/>
<feBlend mode="normal" in2="effect2_dropShadow_1_270" result="effect3_dropShadow_1_270"/>
<feBlend mode="normal" in="SourceGraphic" in2="effect3_dropShadow_1_270" result="shape"/>
</filter>
<clipPath id="clip0_1_270">
<rect width="28.8" height="24" fill="white" transform="translate(40.225 30)"/>
</clipPath>
</defs>
</svg>
